# xmcd
#
# Track frame offsets:
#	150
#	15940
#	38703
#	52290
#	65428
#	81828
#	106715
#	118535
#	131590
#	148878
#
# Disc length: 2127 seconds
#
# Revision: 0
# Processed by: cddbd v1.4PL0 Copyright (c) Steve Scherf et al.
# Submitted via: EasyCDDAExtractor 4.6.9.1
#
DISCID=84084d0a
DTITLE=Hound Dog Taylor - Genuine Houserocking Music
DYEAR=1982
DGENRE=Blues
TTITLE0=Ain't Got Nobody
TTITLE1=Gonna Send You Back To Georgia
TTITLE2=Fender Bender
TTITLE3=My Baby's Coming Home
TTITLE4=Blue Guitar
TTITLE5=The Sun is Shining
TTITLE6=Phillips Goes Bananas
TTITLE7=What'd I Say
TTITLE8=Kansas City
TTITLE9=Crossroads
EXTD=
EXTT0=
EXTT1=
EXTT2=
EXTT3=
EXTT4=
EXTT5=
EXTT6=
EXTT7=
EXTT8=
EXTT9=
PLAYORDER=
